<?xml version="1.0" encoding="iso-8859-1"?>
<!-- Generator: Adobe Illustrator 19.0.0, SVG Export Plug-In . SVG Version: 6.00 Build 0)  -->
<svg fill="white" version="1.1" id="Capa_1" xmlns="http://www.w3.org/2000/svg" xmlns:xlink="http://www.w3.org/1999/xlink" x="0px" y="0px"
	 viewBox="0 0 512.003 512.003" style="enable-background:new 0 0 512.003 512.003;" xml:space="preserve">
<g>
	<g>
		<path d="M61.818,89.204l80.928,140.736c7.712-33.664,29.888-62.304,59.232-77.76c24.96-13.152,48.032-12.352,83.744-12.352
			c49.248-0.032,140.16,0.032,198.24,0C401.497-21.964,180.826-49.292,61.818,89.204z"/>
	</g>
</g>
<g>
	<g>
		<path d="M255.93,170.9c-46.944-0.032-85.088,38.176-85.088,85.12s38.176,85.12,85.088,85.12s85.088-38.176,85.088-85.12
			S302.842,170.9,255.93,170.9z"/>
	</g>
</g>
<g>
	<g>
		<path d="M154.682,313.044c-23.36-40.32-85.12-147.872-113.152-196.8C-56.774,266.9,27.93,472.18,206.362,507.22l82.56-139.776
			C241.178,381.62,185.274,365.908,154.682,313.044z"/>
	</g>
</g>
<g>
	<g>
		<path d="M497.273,170.836l-162.336,0.032c39.776,36.992,48.448,96.896,21.504,143.328
			c-20.288,35.008-85.088,144.352-116.48,197.28C423.802,522.804,557.818,342.644,497.273,170.836z"/>
	</g>
</g>
<g>
</g>
<g>
</g>
<g>
</g>
<g>
</g>
<g>
</g>
<g>
</g>
<g>
</g>
<g>
</g>
<g>
</g>
<g>
</g>
<g>
</g>
<g>
</g>
<g>
</g>
<g>
</g>
<g>
</g>
</svg>
