<svg id="Capa_1" enable-background="new 0 0 512 512" height="512" viewBox="0 0 512 512" width="512" xmlns="http://www.w3.org/2000/svg"><g><path d="m236 417 20 80h59.5v-60z" fill="#0a1f33"/><path d="m196.5 437v60h59.5v-80z" fill="#17324d"/><path d="m315.5 437v-60h-79.5l20 60z" fill="#17324d"/><path d="m196.5 377h59.5v60h-59.5z" fill="#284866"/><path d="m512 0h-256l-20 194.995 20 197.005h256z" fill="#0a1f33"/><path d="m0 0h256v392h-256z" fill="#17324d"/><path d="m482 30h-226l-20 166.167 20 165.833h226z" fill="#cfdfe6"/><path d="m30 30h226v332h-226z" fill="#fff5f5"/><path d="m406 512h-150l-10-15 10-15h150z" fill="#17324d"/><path d="m106 482h150v30h-150z" fill="#284866"/><path d="m437 75h-139l-20 120.003 20 121.997h139z" fill="#29cc95"/><path d="m328 240h79v30h-79z" fill="#17324d"/><path d="m328 180h79v30h-79z" fill="#17324d"/><path d="m236 193.415 20 123.585h42v-127.755z" fill="#8066ff"/><path d="m298 75h-42l-20 76.331 20 62.084 42-24.17z" fill="#69f"/><path d="m76 317h180v-103.585l-82.333 15.585z" fill="#69f"/><path d="m256 75h-180v242l180-103.585z" fill="#9cf"/><path d="m328 120h79v30h-79z" fill="#17324d"/><circle cx="166" cy="165" fill="#ffe666" r="45"/></g></svg>